# xmcd
# 
# Track frame offsets:
#     150
#     10782
#     35590
#     58472
#     82308
#     90344
#     104244
#     116482
#     142898
#     158666
#     176988
#     190841
#     210743
#     220231
#     234374
#     251102
#     273975
#     288421
#     302567
#     323550
# 
# Disc length: 4519
# 
# Revision: 0
# Processed by: cddbd v1.5.2PL0 Copyright (c) Steve Scherf et al.
# Submitted via: fre:ac v1.0.31
# 
DISCID=2511a514
DTITLE=Original Soundtrack - Lalo Schifrin Disc 1
DYEAR=0
DGENRE=Soundtrack
TTITLE0=Enter The Dragon - Main Title
TTITLE1=Samba Para Dos
TTITLE2=The Fox - Main Title
TTITLE3=Eagle Falls In Love
TTITLE4=Transporting Rhino
TTITLE5=Fast Walking - Main Title
TTITLE6=Burning Bridges
TTITLE7=Invisible City
TTITLE8=Dirty Harry - Main Title
TTITLE9=New Orleans Procession
TTITLE10=Caveman - End Title
TTITLE11=There Is Something Out There
TTITLE12=Cool Hand Luke - Main Title
TTITLE13=Telefon - Main Title
TTITLE14=The Pier, The Bridge, And The City
TTITLE15=Love Poem For Donna
TTITLE16=Bank Robbery
TTITLE17=Bullitt - Main Title
TTITLE18=Coogan's Bluff - Main Title
TTITLE19=Rush Hour - End Title
EXTD=
EXTT0=
EXTT1=
EXTT2=
EXTT3=
EXTT4=
EXTT5=
EXTT6=
EXTT7=
EXTT8=
EXTT9=
EXTT10=
EXTT11=
EXTT12=
EXTT13=
EXTT14=
EXTT15=
EXTT16=
EXTT17=
EXTT18=
EXTT19=
PLAYORDER=
